<svg width="86" height="90" viewBox="0 0 86 90" fill="none" xmlns="http://www.w3.org/2000/svg">
<g filter="url(#filter0_d_1_198)">
<rect x="5.72559" y="5" width="75" height="80" rx="3" fill="white"/>
</g>
<g clip-path="url(#clip0_1_198)">
<path d="M54.6586 47.6733C54.625 47.4605 54.4236 47.3155 54.2115 47.3483L39.3677 49.692C39.1549 49.7256 39.0091 49.9263 39.0431 50.1391C39.0732 50.3314 39.2395 50.4687 39.4284 50.4687C39.4486 50.4687 39.4692 50.4672 39.4898 50.4641L54.3336 48.1204C54.5464 48.0868 54.6922 47.8862 54.6586 47.6733Z" fill="#928F8F"/>
<path d="M55.0797 44.6452C50.7974 44.3623 46.5828 44.2188 42.5537 44.2188C38.348 44.2188 29.6631 45.6507 29.6631 50.0781C29.6631 50.294 29.8378 50.4687 30.0537 50.4687C30.2696 50.4687 30.4443 50.294 30.4443 50.0781C30.4443 46.6137 37.6701 45 42.5537 45C46.5652 45 50.763 45.1427 55.0278 45.425C55.2438 45.4463 55.4292 45.2761 55.4436 45.061C55.4581 44.8459 55.2948 44.6597 55.0797 44.6452Z" fill="#928F8F"/>
<path d="M67.1478 46.0619C67.1065 45.9246 66.9952 45.8208 66.8556 45.7903C66.7709 45.7713 64.7384 45.3326 61.3418 45.0015C61.1329 44.9862 60.936 45.1381 60.9162 45.3524C60.8948 45.5675 61.052 45.7583 61.2672 45.7797C63.4613 45.9934 65.1017 46.2581 65.976 46.416L65.7151 46.677C65.6418 46.7502 65.6006 46.8494 65.6006 46.9531V47.7343C65.6006 47.9503 65.7754 48.125 65.9912 48.125C66.2071 48.125 66.3819 47.9503 66.3818 47.7342V47.1148L67.0485 46.4479C67.1493 46.3472 67.1874 46.1992 67.1478 46.0619Z" fill="#928F8F"/>
<path d="M63.9237 48.2394L62.3612 46.677C62.2086 46.5244 61.9614 46.5244 61.8088 46.677C61.6562 46.8295 61.6562 47.0767 61.8088 47.2292L63.3714 48.7917C63.4476 48.868 63.5476 48.9062 63.6475 48.9062C63.7474 48.9062 63.8474 48.8681 63.9237 48.7917C64.0762 48.6392 64.0762 48.392 63.9237 48.2394Z" fill="#928F8F"/>
<path d="M53.6659 50.5099L50.5409 48.9474C50.348 48.8497 50.1128 48.9298 50.0167 49.1222C49.9207 49.3151 49.9985 49.5494 50.1915 49.6462L51.8364 50.4687H26.9287C26.7128 50.4687 26.5381 50.6434 26.5381 50.8594C26.5381 51.0753 26.7128 51.2499 26.9287 51.2499H53.4913C53.6729 51.2499 53.8299 51.1257 53.8712 50.9494C53.9131 50.7732 53.8284 50.5908 53.6659 50.5099Z" fill="#928F8F"/>
<path d="M42.0466 42.7692C41.9726 42.6959 41.8751 42.6593 41.7674 42.6563L41.3826 42.6609L41.3818 40.7032C41.3818 40.4872 41.2067 40.3126 40.9912 40.3126H37.085C30.7891 40.3126 26.1261 43.3727 25.9307 43.5032C25.7511 43.6229 25.7027 43.8655 25.8224 44.0448C25.8976 44.1577 26.0216 44.2188 26.1479 44.2188C26.2222 44.2188 26.2974 44.1974 26.364 44.1531C26.4099 44.1226 31.0234 41.0938 37.085 41.0938H40.6005L40.6013 43.0569C40.6013 43.1615 40.6432 43.2613 40.7177 43.3346C40.7912 43.4078 40.8858 43.4399 40.9968 43.4475L41.3817 43.4429V43.8281C41.3817 44.044 41.5564 44.2188 41.7723 44.2188C41.9882 44.2188 42.1629 44.044 42.1629 43.8281V43.0469C42.1629 42.9423 42.121 42.8424 42.0466 42.7692Z" fill="#928F8F"/>
<path d="M39.4292 41.8751H37.085C31.3332 41.8751 26.9829 44.682 26.8006 44.8018C26.6198 44.9192 26.5695 45.1619 26.6876 45.3419C26.7628 45.4563 26.8875 45.5189 27.015 45.5189C27.0881 45.5189 27.1626 45.4983 27.2286 45.4548C27.403 45.3404 31.5636 42.6564 37.085 42.6564H39.4292C39.645 42.6564 39.8198 42.4816 39.8198 42.2658C39.8198 42.0498 39.645 41.8751 39.4292 41.8751Z" fill="#928F8F"/>
<path d="M23.8036 45C21.8651 45 20.288 46.577 20.288 48.5156C20.288 50.4541 21.865 52.0312 23.8036 52.0312C25.7424 52.0312 27.3193 50.4541 27.3193 48.5156C27.3193 46.577 25.7423 45 23.8036 45ZM23.8036 51.2499C22.2961 51.2499 21.0692 50.0233 21.0692 48.5156C21.0692 47.0081 22.2961 45.7812 23.8036 45.7812C25.3112 45.7812 26.5381 47.0081 26.5381 48.5156C26.5381 50.0232 25.3112 51.2499 23.8036 51.2499Z" fill="#928F8F"/>
<path d="M23.8037 46.9531C22.9419 46.9531 22.2412 47.6542 22.2412 48.5156C22.2412 49.3769 22.9419 50.0781 23.8037 50.0781C24.6655 50.0781 25.3662 49.3769 25.3662 48.5156C25.3662 47.6542 24.6654 46.9531 23.8037 46.9531ZM23.8037 49.2968C23.373 49.2968 23.0224 48.9466 23.0224 48.5156C23.0224 48.0845 23.373 47.7343 23.8037 47.7343C24.2344 47.7343 24.585 48.0845 24.585 48.5156C24.585 48.9466 24.2343 49.2968 23.8037 49.2968Z" fill="#928F8F"/>
<path d="M58.1787 45C56.2401 45 54.6631 46.577 54.6631 48.5156C54.6631 50.4541 56.2401 52.0312 58.1787 52.0312C60.1174 52.0312 61.6944 50.4541 61.6944 48.5156C61.6944 46.577 60.1175 45 58.1787 45ZM58.1787 51.2499C56.6712 51.2499 55.4444 50.0233 55.4444 48.5156C55.4444 47.0081 56.6711 45.7812 58.1787 45.7812C59.6862 45.7812 60.9132 47.0081 60.9132 48.5156C60.9132 50.0232 59.6862 51.2499 58.1787 51.2499Z" fill="#928F8F"/>
<path d="M58.1787 46.9531C57.3166 46.9531 56.6162 47.6542 56.6162 48.5156C56.6162 49.3769 57.3166 50.0781 58.1787 50.0781C59.0408 50.0781 59.7412 49.3769 59.7412 48.5156C59.7412 47.6542 59.0408 46.9531 58.1787 46.9531ZM58.1787 49.2968C57.7485 49.2968 57.3975 48.9466 57.3975 48.5156C57.3975 48.0845 57.7485 47.7343 58.1787 47.7343C58.609 47.7343 58.96 48.0845 58.96 48.5156C58.96 48.9466 58.609 49.2968 58.1787 49.2968Z" fill="#928F8F"/>
<path d="M25.3662 40.3126H19.1162C18.9003 40.3126 18.7256 40.4872 18.7256 40.7032V46.9531C18.7256 47.0568 18.7668 47.156 18.8401 47.2292L19.6213 48.0105C19.6976 48.0868 19.7975 48.125 19.8974 48.125C19.9974 48.125 20.0973 48.0869 20.1737 48.0105C20.3263 47.858 20.3263 47.6108 20.1737 47.4582L19.5068 46.7914V41.0938H24.9756V43.6664L24.3088 44.3332C24.1562 44.4857 24.1562 44.7329 24.3088 44.8855C24.4613 45.0381 24.7086 45.0381 24.8611 44.8855L25.6424 44.1043C25.7156 44.031 25.7569 43.9319 25.7569 43.8281V40.7032C25.7569 40.4872 25.5821 40.3126 25.3662 40.3126Z" fill="#928F8F"/>
<path d="M68.335 50.4687H62.085C61.8691 50.4687 61.6944 50.6434 61.6944 50.8594C61.6944 51.0753 61.8691 51.2499 62.085 51.2499H68.335C68.5509 51.2499 68.7256 51.0753 68.7256 50.8594C68.7256 50.6434 68.5509 50.4687 68.335 50.4687Z" fill="#928F8F"/>
<path d="M68.335 48.125C68.1191 48.125 67.9443 48.2997 67.9443 48.5156V50.8594C67.9443 51.0753 68.1191 51.2499 68.335 51.2499C68.5509 51.2499 68.7256 51.0753 68.7256 50.8594V48.5156C68.7256 48.2997 68.5509 48.125 68.335 48.125Z" fill="#928F8F"/>
<path d="M68.335 48.125H63.6475C63.4315 48.125 63.2569 48.2997 63.2569 48.5156C63.2569 48.7316 63.4315 48.9062 63.6475 48.9062H68.335C68.5509 48.9062 68.7256 48.7316 68.7256 48.5156C68.7256 48.2997 68.5509 48.125 68.335 48.125Z" fill="#928F8F"/>
<path d="M30.8349 46.5625H27.71C27.4941 46.5625 27.3193 46.7372 27.3193 46.9531C27.3193 47.169 27.4941 47.3437 27.71 47.3437H30.8349C31.0509 47.3437 31.2255 47.169 31.2255 46.9531C31.2255 46.7372 31.0508 46.5625 30.8349 46.5625Z" fill="#928F8F"/>
<path d="M45.6787 45.7812C45.4628 45.7812 45.2881 45.956 45.2881 46.1719V47.7343C45.2881 47.9503 45.4628 48.125 45.6787 48.125C45.8946 48.125 46.0693 47.9503 46.0693 47.7343V46.1719C46.0693 45.956 45.8946 45.7812 45.6787 45.7812Z" fill="#928F8F"/>
<path d="M48.0225 42.6563C47.8065 42.6563 47.6318 42.8309 47.6318 43.0469V44.6941C47.6318 44.9099 47.8065 45.0847 48.0225 45.0847C48.2384 45.0847 48.413 44.9099 48.413 44.6941V43.0469C48.413 42.8309 48.2384 42.6563 48.0225 42.6563Z" fill="#928F8F"/>
<path d="M48.8038 42.6563H47.2413C47.0253 42.6563 46.8506 42.8309 46.8506 43.0469C46.8506 43.2628 47.0253 43.4375 47.2413 43.4375H48.8038C49.0196 43.4375 49.1944 43.2628 49.1944 43.0469C49.1944 42.8309 49.0196 42.6563 48.8038 42.6563Z" fill="#928F8F"/>
<path d="M51.9287 44.2188C51.7127 44.2188 51.5381 44.3935 51.5381 44.6094V44.8527C51.5381 45.0687 51.7127 45.2433 51.9287 45.2433C52.1446 45.2433 52.3193 45.0687 52.3193 44.8527V44.6094C52.3193 44.3935 52.1446 44.2188 51.9287 44.2188Z" fill="#928F8F"/>
<path d="M22.2413 41.875H19.1162C18.9003 41.875 18.7256 42.0497 18.7256 42.2657C18.7256 42.4815 18.9003 42.6563 19.1162 42.6563H22.2412C22.4571 42.6563 22.6318 42.4815 22.6319 42.2657C22.6319 42.0497 22.4571 41.875 22.2413 41.875Z" fill="#928F8F"/>
<path d="M62.085 41.0938H55.835C55.6191 41.0938 55.4444 41.2684 55.4444 41.4844C55.4444 41.7003 55.6191 41.875 55.835 41.875H62.085C62.3009 41.875 62.4757 41.7003 62.4757 41.4844C62.4757 41.2684 62.3009 41.0938 62.085 41.0938Z" fill="#928F8F"/>
<path d="M54.2725 41.0938H53.4913C53.2753 41.0938 53.1007 41.2684 53.1007 41.4844C53.1007 41.7003 53.2753 41.875 53.4913 41.875H54.2725C54.4885 41.875 54.6632 41.7003 54.6632 41.4844C54.6632 41.2684 54.4885 41.0938 54.2725 41.0938Z" fill="#928F8F"/>
<path d="M52.7101 37.9688H42.5537C42.3379 37.9688 42.1631 38.1435 42.1631 38.3595C42.1631 38.5753 42.3379 38.7501 42.5537 38.7501H52.7101C52.9259 38.7501 53.1007 38.5753 53.1007 38.3595C53.1007 38.1435 52.926 37.9688 52.7101 37.9688Z" fill="#928F8F"/>
<path d="M55.835 37.9688H54.2725C54.0565 37.9688 53.8819 38.1435 53.8819 38.3595C53.8819 38.5753 54.0565 38.7501 54.2725 38.7501H55.835C56.051 38.7501 56.2256 38.5753 56.2256 38.3595C56.2256 38.1435 56.051 37.9688 55.835 37.9688Z" fill="#928F8F"/>
</g>
<defs>
<filter id="filter0_d_1_198" x="0.725586" y="0" width="85" height="90" filterUnits="userSpaceOnUse" color-interpolation-filters="sRGB">
<feFlood flood-opacity="0" result="BackgroundImageFix"/>
<feColorMatrix in="SourceAlpha" type="matrix" values="0 0 0 0 0 0 0 0 0 0 0 0 0 0 0 0 0 0 127 0" result="hardAlpha"/>
<feOffset/>
<feGaussianBlur stdDeviation="2.5"/>
<feComposite in2="hardAlpha" operator="out"/>
<feColorMatrix type="matrix" values="0 0 0 0 0 0 0 0 0 0 0 0 0 0 0 0 0 0 0.1 0"/>
<feBlend mode="normal" in2="BackgroundImageFix" result="effect1_dropShadow_1_198"/>
<feBlend mode="normal" in="SourceGraphic" in2="effect1_dropShadow_1_198" result="shape"/>
</filter>
<clipPath id="clip0_1_198">
<rect width="50" height="50" fill="white" transform="translate(18.7256 20)"/>
</clipPath>
</defs>
</svg>
