<svg width="12" height="14" viewBox="0 0 12 14" fill="none" xmlns="http://www.w3.org/2000/svg">
<path d="M6 13.75C5.05271 12.942 4.17465 12.0561 3.375 11.1018C2.175 9.66851 0.750001 7.53401 0.750001 5.50001C0.74948 4.46123 1.05713 3.44564 1.63402 2.58178C2.21091 1.71791 3.0311 1.0446 3.9908 0.647056C4.9505 0.249511 6.00656 0.145601 7.02534 0.348477C8.04411 0.551353 8.97981 1.0519 9.714 1.78676C10.2028 2.2734 10.5903 2.85216 10.8539 3.48954C11.1176 4.12692 11.2522 4.81026 11.25 5.50001C11.25 7.53401 9.825 9.66851 8.625 11.1018C7.82535 12.0561 6.94729 12.942 6 13.75ZM6 3.25001C5.40326 3.25001 4.83097 3.48706 4.40901 3.90902C3.98705 4.33097 3.75 4.90327 3.75 5.50001C3.75 6.09675 3.98705 6.66904 4.40901 7.091C4.83097 7.51296 5.40326 7.75001 6 7.75001C6.59674 7.75001 7.16903 7.51296 7.59099 7.091C8.01295 6.66904 8.25 6.09675 8.25 5.50001C8.25 4.90327 8.01295 4.33097 7.59099 3.90902C7.16903 3.48706 6.59674 3.25001 6 3.25001Z" fill="white"/>
</svg>
